<svg xmlns="http://www.w3.org/2000/svg" width="37.737" height="37.188" viewBox="0 0 37.737 37.188">
  <path id="パス_47" data-name="パス 47" d="M19.2,24.837a19.546,19.546,0,0,0,7.1,4.6l3.617-2.879a.643.643,0,0,1,.729,0l6.717,4.327a1.919,1.919,0,0,1,.317,3.051l-3.147,3.109a3.838,3.838,0,0,1-3.483,1.027A33.67,33.67,0,0,1,14.6,29.433,32.422,32.422,0,0,1,5.7,13.284,3.627,3.627,0,0,1,6.757,9.878l3.262-3.147a1.919,1.919,0,0,1,2.994.307l4.471,6.63a.6.6,0,0,1,0,.72l-2.946,3.541A18.951,18.951,0,0,0,19.2,24.837Z" transform="matrix(0.985, 0.174, -0.174, 0.985, 1.091, -7.032)" fill="#13ae67"/>
</svg>
