<svg id="yoko" xmlns="http://www.w3.org/2000/svg" width="239.062" height="72" viewBox="0 0 239.062 72">
  <g id="グループ_1" data-name="グループ 1" transform="translate(109.016 33.558)">
    <path id="パス_1" data-name="パス 1" d="M153.123,57.08a1.852,1.852,0,1,1,0-3.68h5.16a1.811,1.811,0,0,1,1.932,1.932v1.84c0,4.24-2.722,8.2-8.334,8.2-6.272,0-9.691-4.937-9.691-10.8s3.519-10.8,9.63-10.8a8.314,8.314,0,0,1,6.272,2.438,2.628,2.628,0,0,1,.759,1.74,1.722,1.722,0,0,1-1.74,1.771c-.889,0-1.426-.567-2.277-1.2a4.862,4.862,0,0,0-3.074-1.012c-3.55,0-5.666,3.105-5.666,7.061s2.093,7.061,5.7,7.061c2.883,0,4.562-1.932,4.562-3.864v-.7h-3.228Z" transform="translate(-142.19 -43.77)" fill="#3e3a39"/>
    <path id="パス_2" data-name="パス 2" d="M177.058,51.42a1.816,1.816,0,0,1,2.062,1.84,1.929,1.929,0,0,1-2.185,1.963c-1.587,0-2.913,1.043-2.913,3.956v5.8a1.883,1.883,0,1,1-3.741,0v-11.4a1.879,1.879,0,1,1,3.741-.1,3.288,3.288,0,0,1,3.044-2.055Z" transform="translate(-148.744 -45.555)" fill="#3e3a39"/>
    <path id="パス_3" data-name="パス 3" d="M183.17,59.259c0-4.278,2.66-7.889,7.161-7.889s7.161,3.611,7.161,7.889-2.66,7.889-7.161,7.889S183.17,63.537,183.17,59.259Zm10.55,0c0-2.377-1.265-4.278-3.389-4.278s-3.389,1.9-3.389,4.278,1.265,4.278,3.389,4.278,3.389-1.9,3.389-4.278Z" transform="translate(-151.751 -45.543)" fill="#3e3a39"/>
    <path id="パス_4" data-name="パス 4" d="M219.517,55.2l.667-1.963c.314-.92.82-1.74,1.932-1.74a1.74,1.74,0,0,1,1.84,1.74,5.176,5.176,0,0,1-.414,1.71L219.8,65.53a1.993,1.993,0,0,1-1.84,1.549,1.916,1.916,0,0,1-1.9-1.549l-.636-1.9c-.537-1.648-1.073-3.389-1.71-5.666-.636,2.277-1.173,4.025-1.71,5.666l-.636,1.9a1.916,1.916,0,0,1-1.9,1.549,2.009,2.009,0,0,1-1.84-1.549l-3.741-10.58a5.177,5.177,0,0,1-.414-1.71,1.735,1.735,0,0,1,1.84-1.74c1.112,0,1.618.82,1.932,1.74l.667,1.963c.506,1.457,1.112,3.481,1.549,5.321.636-2.055,1.173-3.925,1.71-5.482l.7-1.993c.345-.981.889-1.549,1.84-1.549s1.487.567,1.84,1.549l.7,1.993c.537,1.549,1.073,3.419,1.71,5.482C218.4,58.684,219,56.66,219.5,55.2Z" transform="translate(-156.487 -45.573)" fill="#3e3a39"/>
    <path id="パス_5" data-name="パス 5" d="M231.84,59.259c0-4.278,2.66-7.889,7.161-7.889s7.161,3.611,7.161,7.889S243.5,67.149,239,67.149,231.84,63.537,231.84,59.259Zm10.542,0c0-2.377-1.265-4.278-3.389-4.278s-3.389,1.9-3.389,4.278,1.265,4.278,3.389,4.278,3.389-1.9,3.389-4.278Z" transform="translate(-163.106 -45.543)" fill="#3e3a39"/>
    <path id="パス_6" data-name="パス 6" d="M253.23,59.259c0-4.278,2.66-7.889,7.161-7.889s7.161,3.611,7.161,7.889-2.66,7.889-7.161,7.889S253.23,63.537,253.23,59.259Zm10.55,0c0-2.377-1.265-4.278-3.389-4.278S257,56.883,257,59.259s1.265,4.278,3.389,4.278,3.389-1.9,3.389-4.278Z" transform="translate(-168.097 -45.543)" fill="#3e3a39"/>
    <path id="パス_7" data-name="パス 7" d="M281.093,65.4c-3.895,0-6.463-3.419-6.463-7.889s2.5-7.889,6.494-7.889a4.724,4.724,0,0,1,3.741,1.518v-5.16a1.883,1.883,0,1,1,3.741,0V63.211a1.92,1.92,0,0,1-1.871,2.093,1.812,1.812,0,0,1-1.809-1.518,4.688,4.688,0,0,1-3.833,1.618Zm3.864-7.889c0-2.407-1.2-4.278-3.228-4.278s-3.258,1.648-3.258,4.278,1.234,4.278,3.258,4.278,3.228-1.871,3.228-4.278Z" transform="translate(-173.089 -43.798)" fill="#3e3a39"/>
    <path id="パス_8" data-name="パス 8" d="M296.73,64.1a1.606,1.606,0,0,1,1.679-1.648c1.426,0,1.84,1.457,4.117,1.457,1.3,0,2.185-.475,2.185-1.365,0-1.142-1.618-1.365-3.3-1.809-2.055-.537-4.4-1.426-4.4-4.623,0-2.852,1.84-4.753,5.513-4.753,2.53,0,4.945.92,4.945,2.691a1.534,1.534,0,0,1-1.648,1.587c-1.234,0-1.518-1.043-3.358-1.043-1.173,0-1.871.414-1.871,1.234,0,1.173,1.326,1.457,2.66,1.74,2.124.475,5.037,1.326,5.037,4.784,0,3.105-2.246,4.784-5.8,4.784-3.074,0-5.766-1.234-5.766-3.044Z" transform="translate(-178.245 -45.541)" fill="#3e3a39"/>
  </g>
  <g id="グループ_2" data-name="グループ 2" transform="translate(83.424 34.279)">
    <path id="パス_9" data-name="パス 9" d="M109.347,48.042c-.253,0-.383-.245-.383-.483s.13-.483.376-.483h.966V45.221c0-.261.261-.391.514-.391s.514.13.514.391v1.855h.7c.253,0,.383.245.383.483s-.13.483-.383.483h-.7v.974a5.964,5.964,0,0,1,1.066,1.127.535.535,0,0,1,.107.314.446.446,0,0,1-.445.422.431.431,0,0,1-.36-.2,5.751,5.751,0,0,0-.376-.506v3.642a.461.461,0,0,1-.514.437.457.457,0,0,1-.514-.437V52.367l.031-2.062a8.3,8.3,0,0,1-.675,1.411.449.449,0,0,1-.383.23.47.47,0,0,1-.46-.452.538.538,0,0,1,.092-.284,10.869,10.869,0,0,0,1.3-3.174h-.859Zm8.487.9a.438.438,0,0,1,.406.483.433.433,0,0,1-.406.483h-1.641a10.594,10.594,0,0,0,2,2.292.63.63,0,0,1,.238.46.522.522,0,0,1-.521.521.616.616,0,0,1-.429-.2,11.546,11.546,0,0,1-1.679-2.131l.038,1.679v1.28a.471.471,0,0,1-.514.445.478.478,0,0,1-.521-.445v-1.28l.038-1.671a10.479,10.479,0,0,1-1.894,2.308.616.616,0,0,1-.391.161.513.513,0,0,1-.506-.491.565.565,0,0,1,.222-.422,9.544,9.544,0,0,0,2.062-2.507h-1.418a.492.492,0,0,1,0-.966H114.8v-1.2h-1.066c-.084.169-.153.33-.23.483a.56.56,0,0,1-.491.314.494.494,0,0,1-.514-.46.6.6,0,0,1,.069-.261,7.861,7.861,0,0,0,.767-1.932.458.458,0,0,1,.475-.36.5.5,0,0,1,.521.483.472.472,0,0,1-.023.138c-.061.222-.13.445-.2.652h.7V45.29a.469.469,0,0,1,.521-.445.458.458,0,0,1,.514.445V46.8h1.6c.261,0,.391.23.391.475s-.13.475-.391.475h-1.6v1.2h1.993Z" transform="translate(-108.81 -44.738)" fill="#3e3a39"/>
    <path id="パス_10" data-name="パス 10" d="M127.868,46.6c-.023-.445-.031-.912-.031-1.411a.5.5,0,0,1,.552-.475.513.513,0,0,1,.567.46c0,.506.008.974.031,1.418h2.553a.451.451,0,0,1,.414.491.46.46,0,0,1-.414.506h-2.507a13.532,13.532,0,0,0,.613,3.32c.537,1.549.928,1.924,1.219,1.924.192,0,.314-.1.383-.774a.469.469,0,0,1,.491-.429.5.5,0,0,1,.521.544c-.123,1.227-.59,1.779-1.38,1.779-.912,0-1.618-.682-2.277-2.637a15.386,15.386,0,0,1-.682-3.726h-4.485a.456.456,0,0,1-.406-.506.436.436,0,0,1,.406-.491h4.431Zm-2.775,3.412h-1.1a.438.438,0,0,1-.406-.483.433.433,0,0,1,.406-.483h3.151a.439.439,0,0,1,.414.483.435.435,0,0,1-.414.483h-.958v2.131c.475-.1.935-.215,1.349-.322a1.059,1.059,0,0,1,.153-.023.487.487,0,0,1,.483.491.468.468,0,0,1-.383.46,27.926,27.926,0,0,1-4.025.813.5.5,0,0,1-.583-.514.508.508,0,0,1,.46-.506c.452-.054.958-.123,1.457-.215V49.985Zm5.7-4.5a.557.557,0,0,1,.192.391.506.506,0,0,1-.506.483.472.472,0,0,1-.353-.153,5.2,5.2,0,0,0-.575-.514.486.486,0,0,1-.192-.36.475.475,0,0,1,.483-.452.562.562,0,0,1,.314.1A7.662,7.662,0,0,1,130.8,45.507Z" transform="translate(-112.128 -44.71)" fill="#3e3a39"/>
    <path id="パス_11" data-name="パス 11" d="M118.007,62.132a.617.617,0,0,1,.376.544.538.538,0,0,1-.544.552.733.733,0,0,1-.353-.092,13.85,13.85,0,0,1-3.918-3.09,15.006,15.006,0,0,1-3.9,3.251.512.512,0,0,1-.284.077.54.54,0,0,1-.521-.537.567.567,0,0,1,.314-.483,13.336,13.336,0,0,0,3.964-3.511.625.625,0,0,1,.491-.253.525.525,0,0,1,.56.483.426.426,0,0,1-.031.161A12.488,12.488,0,0,0,118,62.124Zm-4.73,2.76a17.757,17.757,0,0,1-1,1.748c.9-.069,1.809-.138,2.706-.261-.138-.153-.291-.291-.422-.414a.451.451,0,0,1-.169-.345.514.514,0,0,1,.537-.475.649.649,0,0,1,.391.153,11.755,11.755,0,0,1,1.7,1.74.687.687,0,0,1,.161.4.529.529,0,0,1-.544.506.64.64,0,0,1-.521-.284,5.193,5.193,0,0,0-.376-.46,46.42,46.42,0,0,1-5.405.56.5.5,0,0,1-.544-.514.49.49,0,0,1,.514-.514c.23-.008.46-.023.7-.031a16.6,16.6,0,0,0,1.058-1.825h-2.07a.493.493,0,0,1,0-.981h7.276a.451.451,0,0,1,.445.491.446.446,0,0,1-.445.491h-3.987Zm1.924-2.806a.493.493,0,0,1,0,.981h-3.174a.493.493,0,0,1,0-.981Z" transform="translate(-108.822 -47.948)" fill="#3e3a39"/>
    <path id="パス_12" data-name="パス 12" d="M125.158,67.723c0,.284-.261.422-.521.422s-.537-.138-.537-.422V64.542a8.675,8.675,0,0,1-.7.521.579.579,0,0,1-.33.107.5.5,0,0,1-.483-.491.527.527,0,0,1,.261-.445,6.74,6.74,0,0,0,2.285-2.538.257.257,0,0,0,.031-.107c0-.069-.061-.1-.184-.1h-1.794c-.253,0-.376-.245-.376-.483s.123-.475.376-.475h.9V59.144c0-.284.261-.414.537-.414s.521.13.521.414v1.388h.291c.575,0,.9.261.9.728a1.4,1.4,0,0,1-.13.56,6.647,6.647,0,0,1-.974,1.564,6.6,6.6,0,0,1,1.165.705.551.551,0,0,1,.245.422.49.49,0,0,1-.475.483.5.5,0,0,1-.33-.13,6.235,6.235,0,0,0-.682-.475v3.335Zm3.4-4.347h-1.449a.519.519,0,0,1,0-1.027h1.449V59.4a.51.51,0,0,1,.56-.491.517.517,0,0,1,.567.491v2.952h1.633a.519.519,0,0,1,0,1.027h-1.633v3.258h1.94a.519.519,0,0,1,0,1.027h-5.145a.519.519,0,0,1,0-1.027h2.07V63.376Z" transform="translate(-112.025 -47.981)" fill="#3e3a39"/>
  </g>
  <g id="グループ_3" data-name="グループ 3" transform="translate(19.719 36.035)">
    <rect id="長方形_7" data-name="長方形 7" width="21.007" height="4.01" transform="translate(0 31.956)" fill="#604c3f"/>
    <rect id="長方形_8" data-name="長方形 8" width="16.998" height="4.01" transform="translate(4.01 24.082)" fill="#604c3f"/>
    <rect id="長方形_9" data-name="長方形 9" width="12.98" height="4.01" transform="translate(8.027 16.055)" fill="#604c3f"/>
    <rect id="長方形_10" data-name="長方形 10" width="8.97" height="4.01" transform="translate(12.037 8.027)" fill="#604c3f"/>
    <rect id="長方形_11" data-name="長方形 11" width="4.953" height="4.01" transform="translate(16.055)" fill="#604c3f"/>
  </g>
  <circle id="楕円形_1" data-name="楕円形 1" cx="8.495" cy="8.495" r="8.495" transform="translate(0 33.566)" fill="#13ae67"/>
  <circle id="楕円形_2" data-name="楕円形 2" cx="8.495" cy="8.495" r="8.495" transform="translate(10.81 5.298)" fill="#13ae67"/>
  <circle id="楕円形_3" data-name="楕円形 3" cx="8.495" cy="8.495" r="8.495" transform="translate(49.452 12.152)" fill="#13ae67"/>
  <circle id="楕円形_4" data-name="楕円形 4" cx="5.252" cy="5.252" r="5.252" transform="translate(1.924 18.638)" fill="#8fc31f"/>
  <circle id="楕円形_5" data-name="楕円形 5" cx="5.252" cy="5.252" r="5.252" transform="translate(29.947)" fill="#8fc31f"/>
  <circle id="楕円形_6" data-name="楕円形 6" cx="5.252" cy="5.252" r="5.252" transform="translate(60.645 32.676)" fill="#8fc31f"/>
  <circle id="楕円形_7" data-name="楕円形 7" cx="5.252" cy="5.252" r="5.252" transform="translate(17.373 28.306)" fill="#8fc31f"/>
  <circle id="楕円形_8" data-name="楕円形 8" cx="5.252" cy="5.252" r="5.252" transform="translate(37.675 18.638)" fill="#8fc31f"/>
  <circle id="楕円形_9" data-name="楕円形 9" cx="5.252" cy="5.252" r="5.252" transform="translate(46.761 48.846)" fill="#8fc31f"/>
  <circle id="楕円形_10" data-name="楕円形 10" cx="3.243" cy="3.243" r="3.243" transform="translate(15.035 49.436)" fill="#006934"/>
  <circle id="楕円形_11" data-name="楕円形 11" cx="3.243" cy="3.243" r="3.243" transform="translate(46.208 3.228)" fill="#006934"/>
  <circle id="楕円形_12" data-name="楕円形 12" cx="3.243" cy="3.243" r="3.243" transform="translate(44.936 35.367)" fill="#006934"/>
  <circle id="楕円形_13" data-name="楕円形 13" cx="3.243" cy="3.243" r="3.243" transform="translate(60.645 48.125)" fill="#006934"/>
  <circle id="楕円形_14" data-name="楕円形 14" cx="3.243" cy="3.243" r="3.243" transform="translate(27.724 20.647)" fill="#006934"/>
</svg>
