<svg xmlns="http://www.w3.org/2000/svg" width="96" height="96" viewBox="0 0 96 96">
  <g id="グループ_73" data-name="グループ 73" transform="translate(-876 -557)">
    <circle id="楕円形_25" data-name="楕円形 25" cx="48" cy="48" r="48" transform="translate(876 557)" fill="#e7f0ec"/>
    <g id="グループ_55" data-name="グループ 55" transform="translate(893.293 578)">
      <path id="パス_37" data-name="パス 37" d="M344.583,183.219l.563.637.675-.6.359.826.779-.338-.359-.826.9-.085-.081-.845-.9.085.2-.881-.83-.184-.2.878-.775-.457-.431.732.774.457Z" transform="translate(-305.342 -159.814)" fill="#006934"/>
      <path id="パス_38" data-name="パス 38" d="M173.873,206.354l.687-.5-.53-.728.858-.279-.262-.807-.859.279v-.9h-.85v.9l-.855-.278-.263.807.856.279-.529.728.687.5.529-.729Z" transform="translate(-152.886 -179.596)" fill="#006934"/>
      <rect id="長方形_62" data-name="長方形 62" width="1.699" height="5.749" transform="translate(30.06 30.034)" fill="#006934"/>
      <rect id="長方形_63" data-name="長方形 63" width="1.7" height="4.42" transform="translate(22.232 33.626) rotate(-26.84)" fill="#006934"/>
      <rect id="長方形_64" data-name="長方形 64" width="4.42" height="1.7" transform="matrix(0.452, -0.892, 0.892, 0.452, 35.669, 36.801)" fill="#006934"/>
      <rect id="長方形_65" data-name="長方形 65" width="1.699" height="3.414" transform="matrix(0.362, -0.932, 0.932, 0.362, 16.528, 38.866)" fill="#006934"/>
      <rect id="長方形_66" data-name="長方形 66" width="3.413" height="1.699" transform="translate(41.088 38.517) rotate(-21.202)" fill="#006934"/>
      <path id="パス_39" data-name="パス 39" d="M42.771,31.888a6.2,6.2,0,0,0-.7-1.11,5.379,5.379,0,0,0-3.425-2.01V27.562a3.146,3.146,0,0,0,.92-.067,3.257,3.257,0,0,0,2.012.7,3.256,3.256,0,0,0,3.239-2.973,3.253,3.253,0,0,0-.543-5.7,3.242,3.242,0,0,0-2.424-2.288,3.293,3.293,0,0,0-3.162,1.046c-.014,0-.027,0-.041,0V13.959c0-2.969-1.834-5.379-4.125-5.518a6.679,6.679,0,0,0,.653-2.894C35.178,2.488,33.236,0,30.849,0s-4.331,2.488-4.331,5.546a6.667,6.667,0,0,0,.653,2.894c-2.29.142-4.124,2.551-4.124,5.518V20.98a3.168,3.168,0,0,0-4.437-.712c-.215-.244-1.465.931-1.247,1.178a3.229,3.229,0,0,0-1.527,5.366A3.252,3.252,0,0,0,19.056,30.5a3.187,3.187,0,0,0,.607-.069c-.108.116-.223.222-.324.349a5.818,5.818,0,0,0-1.241,2.8,5.236,5.236,0,0,0-5.349,4.373,4.171,4.171,0,0,0,2.629,4.579,7.878,7.878,0,0,0,3.093.546c.511,0,1.021-.031,1.515-.077.2-.019.405-.064.606-.093v9.669H15.1v1.717H46.314V52.572H40.821V42.9c.2.029.409.074.608.093.493.046,1,.077,1.514.077a7.88,7.88,0,0,0,3.094-.546,4.17,4.17,0,0,0,2.628-4.579,5.221,5.221,0,0,0-5.26-4.369M37.246,20.745a1.554,1.554,0,0,1,1.655-.716l.609.135.317-.538a1.553,1.553,0,0,1,1.654-.719,1.53,1.53,0,0,1,1.195,1.351l.059.622.61.136a1.534,1.534,0,0,1,.278,2.906l-.574.248.06.621a1.534,1.534,0,0,1-2.678,1.163l-.413-.469-.573.25a1.564,1.564,0,0,1-1.759-.39,1.533,1.533,0,0,1-.172-1.8l.316-.538-.413-.467a1.528,1.528,0,0,1-.17-1.8m-.312-6.786a4.934,4.934,0,0,1-.6,2.393V13.178H35.47v4.188a2.113,2.113,0,0,1-.657.348V12.187h-.858v5.546a1.963,1.963,0,0,1-.657-.265v-4.29h-.858v3.4a4.854,4.854,0,0,1-.731-2.616c0-2.076,1.2-3.828,2.613-3.828s2.612,1.753,2.612,3.828m-1.152,9.247a3.245,3.245,0,0,0,.617,3.276,3.153,3.153,0,0,0,.536.458v1.826a6.683,6.683,0,0,0-1.315.314,5.818,5.818,0,0,0-3.911-3.514V18.353a3.536,3.536,0,0,0,5.226,0v.382a3.2,3.2,0,0,0-1.166,1.138,3.239,3.239,0,0,0,.014,3.333M30.849,1.717c1.416,0,2.612,1.754,2.612,3.83a4.917,4.917,0,0,1-.63,2.438V4.852h-.858V8.976a2.049,2.049,0,0,1-.657.331V3.861h-.858V9.318a1.981,1.981,0,0,1-.657-.282V4.852h-.858V8.117a4.868,4.868,0,0,1-.706-2.571c0-2.076,1.2-3.83,2.614-3.83M27.379,10.13c1.416,0,2.612,1.753,2.612,3.828a4.865,4.865,0,0,1-.716,2.59V13.236h-.858v4.221a2,2,0,0,1-.657.274V12.245H26.9v5.471a2.085,2.085,0,0,1-.657-.338V13.236h-.858v3.142a4.919,4.919,0,0,1-.62-2.42c0-2.076,1.2-3.828,2.614-3.828M25.1,26.813a3.225,3.225,0,0,0-.333-4.776V18.353a3.536,3.536,0,0,0,5.226,0v7.183a5.7,5.7,0,0,0-4.2,3.546A6.828,6.828,0,0,0,24.7,28.8a3.212,3.212,0,0,0,.393-1.983m-6.939,1.675a1.536,1.536,0,0,1-.558-1.72l.191-.592-.5-.366a1.536,1.536,0,0,1,.9-2.778h.624l.192-.593a1.534,1.534,0,0,1,2.919,0l.192.593h.624a1.534,1.534,0,0,1,.9,2.776l-.506.367.193.595a1.526,1.526,0,0,1-.556,1.716,1.564,1.564,0,0,1-1.805,0l-.506-.368-.505.368a1.563,1.563,0,0,1-1.8,0M39.1,52.572H22.31V42.546a18.507,18.507,0,0,0,2.191-.733,7.445,7.445,0,0,0-1.518,4.183l-.017.891.891-.016a7.48,7.48,0,0,0,4.283-1.594A7.608,7.608,0,0,0,30.088,49.8l.619.644.619-.643a7.609,7.609,0,0,0,1.948-4.53,7.482,7.482,0,0,0,4.284,1.6l.891.016-.017-.891a7.447,7.447,0,0,0-1.521-4.184,18.578,18.578,0,0,0,2.194.734ZM24.837,45.017a6.752,6.752,0,0,1,1.8-3.073,6.972,6.972,0,0,1,2.408-1.573,8.1,8.1,0,0,0-.834,2.52c-.1.11-.195.219-.3.324a6.753,6.753,0,0,1-3.074,1.8m4.97-.663a6.745,6.745,0,0,1,.9-3.446,7.051,7.051,0,0,1,0,6.893,6.755,6.755,0,0,1-.9-3.447m2.565-3.977a6.9,6.9,0,0,1,2.4,1.567,6.759,6.759,0,0,1,1.8,3.073,6.755,6.755,0,0,1-3.075-1.8c-.106-.105-.2-.216-.3-.325a8.1,8.1,0,0,0-.831-2.512m14.59-2.21a2.449,2.449,0,0,1-1.593,2.778,6.2,6.2,0,0,1-2.426.411c-.458,0-.914-.029-1.354-.07a16.366,16.366,0,0,1-5.726-1.832,12.053,12.053,0,0,0-4.356-1.09c-.2-.031-.41-.056-.615-.067l-.152,0-.033-.035-.034.035-.27,0c-.169.011-.34.036-.51.062a12.083,12.083,0,0,0-4.339,1.09,16.375,16.375,0,0,1-5.726,1.832c-.441.041-.9.07-1.355.07a6.2,6.2,0,0,1-2.426-.411,2.449,2.449,0,0,1-1.593-2.778,3.525,3.525,0,0,1,4.261-2.745l1.434.461-.334-1.468a3.531,3.531,0,0,1,.867-2.566A3.663,3.663,0,0,1,23.6,30.394a5.4,5.4,0,0,1,2.429.655l1.248.636v-1.4c0-1.07,1.656-3.077,3.126-3.077h.612c1.47,0,3.126,2.008,3.126,3.077v1.4l1.248-.636a5.4,5.4,0,0,1,2.429-.655,3.663,3.663,0,0,1,2.917,1.454,3.531,3.531,0,0,1,.867,2.566l-.334,1.468,1.433-.461a3.525,3.525,0,0,1,4.261,2.745" transform="translate(0)" fill="#006934"/>
    </g>
  </g>
</svg>
