<svg xmlns="http://www.w3.org/2000/svg" width="96" height="96" viewBox="0 0 96 96">
  <g id="グループ_72" data-name="グループ 72" transform="translate(-580 -557)">
    <circle id="楕円形_27" data-name="楕円形 27" cx="48" cy="48" r="48" transform="translate(580 557)" fill="#e7f0ec"/>
    <g id="AdobeStock_227079973" transform="translate(564 541)">
      <path id="パス_35" data-name="パス 35" d="M77.231,50.462H75.077V49.231a1.231,1.231,0,1,0-2.462,0v1.231H55.385V49.231a1.231,1.231,0,1,0-2.462,0v1.231H50.769A2.773,2.773,0,0,0,48,53.231v24A2.773,2.773,0,0,0,50.769,80H77.231A2.773,2.773,0,0,0,80,77.231v-24A2.773,2.773,0,0,0,77.231,50.462ZM50.769,52.923h2.154v1.231a1.231,1.231,0,1,0,2.462,0V52.923H72.615v1.231a1.231,1.231,0,1,0,2.462,0V52.923h2.154a.308.308,0,0,1,.308.308v3.385H50.462V53.231A.308.308,0,0,1,50.769,52.923ZM77.231,77.538H50.769a.308.308,0,0,1-.308-.308V59.077H77.538V77.231A.309.309,0,0,1,77.231,77.538Z" fill="#006934"/>
      <path id="パス_36" data-name="パス 36" d="M187.736,224.186a1.231,1.231,0,0,0-1.7.391l-5.482,8.771-2.638-1.758a1.231,1.231,0,0,0-1.365,2.048l3.692,2.462a1.23,1.23,0,0,0,1.726-.372l6.154-9.846A1.23,1.23,0,0,0,187.736,224.186Z" transform="translate(-118.16 -162.46)" fill="#006934"/>
    </g>
  </g>
</svg>
