<svg xmlns="http://www.w3.org/2000/svg" xmlns:xlink="http://www.w3.org/1999/xlink" width="96" height="96" viewBox="0 0 96 96">
  <defs>
    <clipPath id="clip-path">
      <rect id="長方形_59" data-name="長方形 59" width="32" height="43.321" fill="#006934"/>
    </clipPath>
  </defs>
  <g id="グループ_74" data-name="グループ 74" transform="translate(-1180 -557)">
    <circle id="楕円形_26" data-name="楕円形 26" cx="48" cy="48" r="48" transform="translate(1180 557)" fill="#e7f0ec"/>
    <g id="グループ_52" data-name="グループ 52" transform="translate(1212 583)">
      <g id="グループ_51" data-name="グループ 51" transform="translate(0 0)" clip-path="url(#clip-path)">
        <path id="パス_31" data-name="パス 31" d="M31.864,42.1l-5.83-8.48c1.509-.233,3.012-.5,4.5-.842l.245-.057a.775.775,0,0,0,.6-.757V2.417a.775.775,0,0,0-.6-.757,66.606,66.606,0,0,0-29.554,0,.777.777,0,0,0-.6.757v29.55a.777.777,0,0,0,.6.757l.245.057c1.39.318,2.8.577,4.206.8L.137,41.637a.777.777,0,0,0,.2,1.08.766.766,0,0,0,.439.138.779.779,0,0,0,.641-.338l1.058-1.54H29.2l1.38,2a.777.777,0,0,0,1.281-.88M2.172,7.341h13.05V19.424H2.172Zm14.606,0h13.05V19.424H16.778Zm13.048-4.3V5.785H2.172V3.04a65.036,65.036,0,0,1,27.655,0M2.172,20.978H29.827V31.346a63.952,63.952,0,0,1-27.655,0ZM16,34.413a65.636,65.636,0,0,0,8.315-.548L25.6,35.736H6.079l1.315-1.912A65.825,65.825,0,0,0,16,34.413M3.544,39.424,5.011,37.29H26.669l1.467,2.134Z" transform="translate(0 0.001)" fill="#006934"/>
        <path id="パス_32" data-name="パス 32" d="M7.905,10.931H2.955a1.585,1.585,0,0,0-1.584,1.584V14.4a1.585,1.585,0,0,0,1.584,1.582h4.95A1.584,1.584,0,0,0,9.487,14.4V12.515a1.585,1.585,0,0,0-1.582-1.584M7.934,14.4a.028.028,0,0,1-.028.028H2.955a.029.029,0,0,1-.03-.028V12.515a.031.031,0,0,1,.03-.03h4.95a.029.029,0,0,1,.028.03Z" transform="translate(1.403 11.183)" fill="#006934"/>
        <path id="パス_33" data-name="パス 33" d="M12.017,15.98h4.95A1.585,1.585,0,0,0,18.551,14.4V12.515a1.585,1.585,0,0,0-1.584-1.584h-4.95a1.585,1.585,0,0,0-1.582,1.584V14.4a1.585,1.585,0,0,0,1.582,1.584m-.028-3.465a.028.028,0,0,1,.028-.028h4.95a.029.029,0,0,1,.03.028V14.4a.029.029,0,0,1-.03.028h-4.95a.028.028,0,0,1-.028-.028Z" transform="translate(10.675 11.183)" fill="#006934"/>
        <path id="パス_34" data-name="パス 34" d="M6.584,3.065h6.953a.777.777,0,0,0,0-1.554H6.584a.777.777,0,0,0,0,1.554" transform="translate(5.941 1.546)" fill="#006934"/>
      </g>
    </g>
  </g>
</svg>
