<svg xmlns="http://www.w3.org/2000/svg" width="28" height="28" viewBox="0 0 28 28">
  <g id="グループ_11" data-name="グループ 11" transform="translate(-585 -2730)">
    <circle id="楕円形_17" data-name="楕円形 17" cx="14" cy="14" r="14" transform="translate(585 2730)" fill="#3a3a3a"/>
    <g id="arrow-forward-fill" transform="translate(540.325 2738.86) rotate(-45)">
      <path id="パス_15" data-name="パス 15" d="M32.732,45.855h8.68l-2.657,3.191a.733.733,0,1,0,1.127.937l3.659-4.391a.873.873,0,0,0,.066-.11c0-.037.037-.059.051-.1a.7.7,0,0,0,0-.527c0-.037-.037-.059-.051-.1a.871.871,0,0,0-.066-.11l-3.659-4.391a.733.733,0,1,0-1.127.937l2.657,3.191h-8.68a.732.732,0,1,0,0,1.464Z" transform="translate(0 0)" fill="#fff"/>
    </g>
  </g>
</svg>
